<?xml version="1.0" standalone="no"?><!DOCTYPE svg PUBLIC "-//W3C//DTD SVG 1.1//EN" "http://www.w3.org/Graphics/SVG/1.1/DTD/svg11.dtd"><svg t="1604478793328" class="icon" viewBox="0 0 1024 1024" version="1.1" xmlns="http://www.w3.org/2000/svg" p-id="6841" xmlns:xlink="http://www.w3.org/1999/xlink" width="200" height="200"><defs><style type="text/css"></style></defs><path d="M678.77 356.4H330.51a44.05 44.05 0 0 1-44-44v-140a44.05 44.05 0 0 1 44-44h348.26a44.05 44.05 0 0 1 44 44v140a44.05 44.05 0 0 1-44 44z m-328.26-64h308.26v-100H350.51z" fill="#1296db" p-id="6842"></path><path d="M782.26 223.84h-60.09v64h40.09v575.68H248.57V287.84h39.56v-64h-59.56a44 44 0 0 0-44 44v615.68a44.05 44.05 0 0 0 44 44h553.69a44.05 44.05 0 0 0 44-44V267.84a44 44 0 0 0-44-44z" fill="#1296db" p-id="6843"></path><path d="M476.11 400.88m32 0l0 0q32 0 32 32l0 231.47q0 32-32 32l0 0q-32 0-32-32l0-231.47q0-32 32-32Z" fill="#1296db" p-id="6844"></path><path d="M476.11 729.07m32 0l0 0q32 0 32 32l0 0q0 32-32 32l0 0q-32 0-32-32l0 0q0-32 32-32Z" fill="#1296db" p-id="6845"></path></svg>