<?xml version="1.0" standalone="no"?><!DOCTYPE svg PUBLIC "-//W3C//DTD SVG 1.1//EN" "http://www.w3.org/Graphics/SVG/1.1/DTD/svg11.dtd"><svg t="1604470207259" class="icon" viewBox="0 0 1024 1024" version="1.1" xmlns="http://www.w3.org/2000/svg" p-id="3280" xmlns:xlink="http://www.w3.org/1999/xlink" width="200" height="200"><defs><style type="text/css"></style></defs><path d="M840 230.2V914c0 27.1 21.9 49 49 49h25.8c27.1 0 49-21.9 49-49V230.2c0-27.1-21.9-49-49-49H889c-27.1 0-49 21.9-49 49zM109 963h25.8c27.1 0 49-21.9 49-49V230.2c0-27.1-21.9-49-49-49H109c-27.1 0-49 21.9-49 49V914c0 27 21.9 49 49 49zM277 923h470c27.1 0 49-21.9 49-49V270.2c0-27.1-21.9-49-49-49H277c-27.1 0-49 21.9-49 49V874c0 27 21.9 49 49 49z m90-490h292c27.1 0 49 21.9 49 49s-21.9 49-49 49H367c-27.1 0-49-21.9-49-49s21.9-49 49-49z m0 191h112c27.1 0 49 21.9 49 49s-21.9 49-49 49H367c-27.1 0-49-21.9-49-49s21.9-49 49-49z" p-id="3281" fill="#1296db"></path></svg>