<?xml version="1.0" standalone="no"?><!DOCTYPE svg PUBLIC "-//W3C//DTD SVG 1.1//EN" "http://www.w3.org/Graphics/SVG/1.1/DTD/svg11.dtd"><svg t="1604470189742" class="icon" viewBox="0 0 1024 1024" version="1.1" xmlns="http://www.w3.org/2000/svg" p-id="3041" xmlns:xlink="http://www.w3.org/1999/xlink" width="200" height="200"><defs><style type="text/css"></style></defs><path d="M510.5 62c-248.6 0-452 203.4-452 452v429.1c0 11.1 9 20.1 20.1 20.1h51.8c11.1 0 20.1-9 20.1-20.1V527c0-198 162-360 360-360s360 162 360 360v416.1c0 11.1 9 20.1 20.1 20.1h51.8c11.1 0 20.1-9 20.1-20.1V514c0-248.6-203.4-452-452-452z" p-id="3042" fill="#1296db"></path><path d="M510.5 318.8c-121.8 0-220.5 98.7-220.5 220.5v403.8c0 11.1 9 20.1 20.1 20.1h113.2c9.7 0 17.9-6.9 19.7-16.3l12.7-66.6c1.8-9.5 10.1-16.3 19.7-16.3h70.1c9.7 0 17.9 6.9 19.7 16.3l12.7 66.6c1.8 9.5 10.1 16.3 19.7 16.3h113.2c11.1 0 20.1-9 20.1-20.1V539.3c0.1-121.8-98.6-220.5-220.4-220.5z m-2.3 346h4.6c9.9 0 18.3 7.2 19.9 17l2.3 14.8c1.9 12.2-7.5 23.2-19.9 23.2h-9.2c-12.3 0-21.8-11-19.9-23.2l2.3-14.8c1.6-9.8 10-17 19.9-17z m-39.9 143.1l5.3-37.8c1.4-9.9 9.9-17.3 19.9-17.3h33.8c10 0 18.5 7.4 19.9 17.3l5.3 37.8c1.7 12.1-7.7 22.9-19.9 22.9h-44.4c-12.2 0-21.6-10.8-19.9-22.9z" p-id="3043" fill="#1296db"></path></svg>