<?xml version="1.0" standalone="no"?><!DOCTYPE svg PUBLIC "-//W3C//DTD SVG 1.1//EN" "http://www.w3.org/Graphics/SVG/1.1/DTD/svg11.dtd"><svg t="1605088142237" class="icon" viewBox="0 0 1024 1024" version="1.1" xmlns="http://www.w3.org/2000/svg" p-id="3274" xmlns:xlink="http://www.w3.org/1999/xlink" width="200" height="200"><defs><style type="text/css"></style></defs><path d="M855.7 455.96C872.8 250.74 709.3 98.23 511.73 98.23c-197.57 0-356.53 154.61-343.97 357.73 9.54 154.23 220.03 336.1 308.07 401.02H250.32v68.79h522.83v-68.79H547.63c88.04-64.92 294.95-243.56 308.07-401.02zM511.73 799.93s-253.5-183.27-275.18-343.97c-22.45-166.38 115.6-288.93 275.18-288.93s288.13 121.54 275.18 288.93C774.6 615.04 511.73 799.93 511.73 799.93z" p-id="3275" fill="#1296db"></path><path d="M511.73 277.14c-82.02 0-148.51 66.49-148.51 148.51s66.49 148.51 148.51 148.51 148.51-66.49 148.51-148.51c0.01-82.02-66.48-148.51-148.51-148.51z m0 234.03c-47.23 0-85.52-38.29-85.52-85.52s38.29-85.52 85.52-85.52 85.52 38.29 85.52 85.52-38.28 85.52-85.52 85.52z" p-id="3276" fill="#1296db"></path></svg>