<?xml version="1.0" standalone="no"?><!DOCTYPE svg PUBLIC "-//W3C//DTD SVG 1.1//EN" "http://www.w3.org/Graphics/SVG/1.1/DTD/svg11.dtd"><svg t="1604476162300" class="icon" viewBox="0 0 1024 1024" version="1.1" xmlns="http://www.w3.org/2000/svg" p-id="4246" xmlns:xlink="http://www.w3.org/1999/xlink" width="200" height="200"><defs><style type="text/css"></style></defs><path d="M512 254.5a27 27 0 0 0 27-27v-132a27 27 0 0 0-54 0v132a27 27 0 0 0 27 27zM641.2 289.08a27 27 0 0 0 36.88-9.88l66-114.28a27 27 0 1 0-46.77-27l-66 114.28a27 27 0 0 0 9.89 36.88zM896.83 290.68a27 27 0 0 0-36.88-9.88l-114.28 66a27 27 0 1 0 27 46.77l114.28-66a27 27 0 0 0 9.88-36.89zM345.92 279.2a27 27 0 0 0 46.77-27l-66-114.28a27 27 0 0 0-46.77 27zM251.34 393.54a27 27 0 1 0 27-46.77l-114.28-66a27 27 0 0 0-27 46.77zM790.75 754H745V554.85a231.22 231.22 0 0 0-68.29-164.58c-44.12-44.12-102.51-68.42-164.51-68.42a231.58 231.58 0 0 0-164.68 68.42C303.4 434.39 279 492.84 279 554.85V754h-45.75c-55.62 0-100.87 45.38-100.87 101s45.25 101 100.87 101h557.5c55.62 0 100.87-45.38 100.87-101s-45.25-101-100.87-101zM333 554.85c0-47.58 18.81-92.47 52.73-126.4a177.86 177.86 0 0 1 126.46-52.6c47.58 0 92.38 18.68 126.3 52.6A177.61 177.61 0 0 1 691 554.85V754H333zM790.75 902h-557.5a47 47 0 0 1 0-94h557.5a47 47 0 0 1 0 94z" p-id="4247" fill="#1296db"></path></svg>